<?xml version="1.0" encoding="iso-8859-1"?>
<!-- Generator: Adobe Illustrator 18.1.1, SVG Export Plug-In . SVG Version: 6.00 Build 0)  -->
<svg version="1.1" id="Capa_1" xmlns="http://www.w3.org/2000/svg" xmlns:xlink="http://www.w3.org/1999/xlink" x="0px" y="0px"
	 viewBox="0 0 472.951 472.951" style="enable-background:new 0 0 472.951 472.951;" xml:space="preserve">
<g>
	<g>
		<g>
			<path style="fill:#010002;" d="M462.557,77.627c-14.323-25.556-41.488-41.423-70.889-41.423c-13.835,0-27.54,3.585-39.602,10.364
				l-152.557,85.635l17.55,31.279l152.565-85.635c6.747-3.78,14.371-5.779,22.069-5.779c16.428,0,31.596,8.852,39.594,23.11
				c5.909,10.535,7.356,22.752,4.072,34.408c-3.268,11.656-10.876,21.346-21.411,27.255l-138.291,77.604
				c-2.634-16.851-10.494-32.392-22.793-44.699c-21.687-21.663-56.063-29.328-84.935-18.964l-12.485,4.495l12.128,33.734
				l12.534-4.471c16.127-5.869,35.319-1.496,47.406,10.567c6.974,6.982,11.388,15.826,12.786,25.41
				c-0.585-0.138-1.171-0.285-1.731-0.447c-11.681-3.284-21.354-10.9-27.271-21.476l-6.519-11.518l-31.303,17.59l6.56,11.518
				c10.6,18.915,27.93,32.571,48.836,38.44c0.723,0.187,1.455,0.39,2.187,0.561c-1.105,1.398-2.284,2.731-3.536,3.983
				l-114.32,114.328c-8.551,8.543-19.931,13.241-32.035,13.241c-12.112,0-23.492-4.698-32.027-13.241
				c-8.535-8.543-13.233-19.907-13.233-32.027c0-12.112,4.698-23.483,13.233-32.018l99.291-99.282l-25.369-25.369l-99.282,99.282
				C8.446,319.427,0,339.806,0,361.468c0,21.679,8.446,42.049,23.776,57.396c15.339,15.339,35.709,23.768,57.388,23.768
				s42.049-8.429,57.388-23.768l114.345-114.32c8.372-8.405,14.81-18.566,18.842-29.71c6.625-1.764,12.924-4.3,18.777-7.6
				l140.99-79.115c18.875-10.608,32.514-27.946,38.375-48.828C475.749,118.4,473.148,96.493,462.557,77.627z"/>
		</g>
		<g>
			<g>
				<path style="fill:#010002;" d="M173.171,141.769c4.503-0.821,7.511-5.145,6.69-9.657l-17.103-94.942
					c-0.821-4.519-5.162-7.527-9.665-6.722c-4.511,0.821-7.527,5.145-6.706,9.673l17.111,94.925
					C164.311,139.575,168.644,142.574,173.171,141.769z"/>
			</g>
		</g>
		<g>
			<g>
				<path style="fill:#010002;" d="M43.561,191.776l94.934-17.119c4.519-0.821,7.527-5.145,6.706-9.657
					c-0.821-4.528-5.145-7.543-9.649-6.722L40.61,175.405c-4.503,0.797-7.519,5.145-6.698,9.657
					C34.717,189.582,39.058,192.589,43.561,191.776z"/>
			</g>
		</g>
	</g>
</g>
<g>
</g>
<g>
</g>
<g>
</g>
<g>
</g>
<g>
</g>
<g>
</g>
<g>
</g>
<g>
</g>
<g>
</g>
<g>
</g>
<g>
</g>
<g>
</g>
<g>
</g>
<g>
</g>
<g>
</g>
</svg>
