<?xml version="1.0" encoding="iso-8859-1"?>
<!-- Generator: Adobe Illustrator 19.0.0, SVG Export Plug-In . SVG Version: 6.00 Build 0)  -->
<svg version="1.1" id="Layer_1" xmlns="http://www.w3.org/2000/svg" xmlns:xlink="http://www.w3.org/1999/xlink" x="0px" y="0px"
	 viewBox="0 0 512 512" style="enable-background:new 0 0 512 512;" xml:space="preserve">
<g>
	<g>
		<path d="M496.327,0H120.163c-5.77,0-10.449,4.679-10.449,10.449v261.224H15.673c-5.77,0-10.449,4.679-10.449,10.449v219.429
			c0,5.77,4.679,10.449,10.449,10.449h219.429c5.77,0,10.449-4.679,10.449-10.449v-104.49h250.776
			c5.77,0,10.449-4.679,10.449-10.449V10.449C506.776,4.679,502.097,0,496.327,0z M224.653,491.102H26.122V292.571h83.592v94.041
			c0,5.77,4.679,10.449,10.449,10.449h104.49V491.102z M224.653,376.163h-94.041v-83.592h94.041V376.163z M485.878,376.163H245.551
			v-94.041c0-5.77-4.679-10.449-10.449-10.449h-104.49V20.898h355.265V376.163z"/>
	</g>
</g>
<g>
	<g>
		<path d="M433.633,52.245h-94.041c-5.771,0-10.449,4.679-10.449,10.449s4.679,10.449,10.449,10.449h68.815L298.568,182.982
			l14.777,14.777L423.184,87.92v68.815c0,5.77,4.679,10.449,10.449,10.449s10.449-4.679,10.449-10.449V62.694
			C444.082,56.923,439.403,52.245,433.633,52.245z"/>
	</g>
</g>
<g>
</g>
<g>
</g>
<g>
</g>
<g>
</g>
<g>
</g>
<g>
</g>
<g>
</g>
<g>
</g>
<g>
</g>
<g>
</g>
<g>
</g>
<g>
</g>
<g>
</g>
<g>
</g>
<g>
</g>
</svg>
