<?xml version="1.0" encoding="iso-8859-1"?>
<!-- Generator: Adobe Illustrator 17.1.0, SVG Export Plug-In . SVG Version: 6.00 Build 0)  -->
<!DOCTYPE svg PUBLIC "-//W3C//DTD SVG 1.1//EN" "http://www.w3.org/Graphics/SVG/1.1/DTD/svg11.dtd">
<svg version="1.1" id="Capa_1" xmlns="http://www.w3.org/2000/svg" xmlns:xlink="http://www.w3.org/1999/xlink" x="0px" y="0px"
	 viewBox="0 0 391.762 391.762" style="enable-background:new 0 0 391.762 391.762;" xml:space="preserve">
<g>
	<path d="M7.5,135.48h53.762c4.142,0,7.5-3.357,7.5-7.5V74.219c0-4.143-3.358-7.5-7.5-7.5H15v-5.494l13.472-13.471
		c2.929-2.93,2.929-7.678,0-10.607c-2.93-2.928-7.678-2.928-10.607,0L2.196,52.814C0.79,54.221,0,56.129,0,58.118v16.101v9.2v44.562
		C0,132.123,3.358,135.48,7.5,135.48z M53.762,81.719v38.762H15V83.419v-1.7H53.762z"/>
	<path d="M93.688,135.48h53.763c4.143,0,7.5-3.357,7.5-7.5V74.219c0-4.143-3.357-7.5-7.5-7.5h-46.263v-5.494l13.472-13.471
		c2.929-2.93,2.929-7.678,0-10.607c-2.93-2.928-7.678-2.928-10.607,0L88.384,52.814c-1.406,1.407-2.196,3.314-2.196,5.304v16.101
		v9.2v44.562C86.188,132.123,89.545,135.48,93.688,135.48z M139.95,81.719v38.762h-38.763V83.419v-1.7H139.95z"/>
	<path d="M384.262,256.281H330.5c-4.142,0-7.5,3.357-7.5,7.5v53.762c0,4.143,3.358,7.5,7.5,7.5h46.262v5.494l-13.472,13.471
		c-2.929,2.93-2.929,7.678,0,10.607c1.465,1.464,3.385,2.196,5.304,2.196c1.919,0,3.839-0.733,5.304-2.196l15.668-15.668
		c1.406-1.407,2.196-3.314,2.196-5.304v-16.101v-9.198v-44.564C391.762,259.638,388.404,256.281,384.262,256.281z M338,310.043
		v-38.762h38.762v37.064v1.698H338z"/>
	<path d="M298.074,256.281h-53.762c-4.143,0-7.5,3.357-7.5,7.5v53.762c0,4.143,3.357,7.5,7.5,7.5h46.262v5.494l-13.472,13.471
		c-2.929,2.93-2.929,7.678,0,10.607c1.465,1.464,3.385,2.196,5.304,2.196c1.919,0,3.839-0.733,5.304-2.196l15.668-15.668
		c1.406-1.407,2.196-3.314,2.196-5.304v-16.101v-9.198v-44.564C305.574,259.638,302.217,256.281,298.074,256.281z M251.813,310.043
		v-38.762h38.762v37.064v1.698H251.813z"/>
	<path d="M185.62,135.48h198.642c4.142,0,7.5-3.357,7.5-7.5c0-4.143-3.358-7.5-7.5-7.5H185.62c-4.143,0-7.5,3.357-7.5,7.5
		C178.12,132.123,181.478,135.48,185.62,135.48z"/>
	<path d="M384.262,167.871H7.5c-4.142,0-7.5,3.357-7.5,7.5c0,4.143,3.358,7.5,7.5,7.5h376.762c4.142,0,7.5-3.357,7.5-7.5
		C391.762,171.228,388.404,167.871,384.262,167.871z"/>
	<path d="M384.262,215.262H7.5c-4.142,0-7.5,3.357-7.5,7.5c0,4.143,3.358,7.5,7.5,7.5h376.762c4.142,0,7.5-3.357,7.5-7.5
		C391.762,218.619,388.404,215.262,384.262,215.262z"/>
	<path d="M206.316,310.043H7.5c-4.142,0-7.5,3.357-7.5,7.5c0,4.143,3.358,7.5,7.5,7.5h198.816c4.142,0,7.5-3.357,7.5-7.5
		C213.816,313.4,210.458,310.043,206.316,310.043z"/>
	<path d="M206.316,262.652H7.5c-4.142,0-7.5,3.357-7.5,7.5c0,4.143,3.358,7.5,7.5,7.5h198.816c4.142,0,7.5-3.357,7.5-7.5
		C213.816,266.01,210.458,262.652,206.316,262.652z"/>
</g>
<g>
</g>
<g>
</g>
<g>
</g>
<g>
</g>
<g>
</g>
<g>
</g>
<g>
</g>
<g>
</g>
<g>
</g>
<g>
</g>
<g>
</g>
<g>
</g>
<g>
</g>
<g>
</g>
<g>
</g>
</svg>
